<mxfile host="app.diagrams.net" modified="2021-11-09T06:39:41.403Z" agent="5.0 (Macintosh; Intel Mac OS X 10_15_7) AppleWebKit/537.36 (KHTML, like Gecko) Chrome/92.0.4515.107 Safari/537.36 Edg/92.0.902.62" etag="v7DrThwa8fFGnKInLKma" version="15.7.0" type="github">
  <diagram id="Cjvi8pkrutFSl_VR2OeL" name="Page-1">
    <mxGraphModel dx="1527" dy="840" grid="1" gridSize="10" guides="1" tooltips="1" connect="1" arrows="1" fold="1" page="1" pageScale="1" pageWidth="827" pageHeight="1169" math="0" shadow="0">
      <root>
        <mxCell id="0" />
        <mxCell id="1" parent="0" />
        <mxCell id="8_V6e5ZqzKGBygjB9ZW2-5" style="edgeStyle=orthogonalEdgeStyle;rounded=0;orthogonalLoop=1;jettySize=auto;html=1;entryX=0.5;entryY=0;entryDx=0;entryDy=0;" edge="1" parent="1" source="8_V6e5ZqzKGBygjB9ZW2-1" target="8_V6e5ZqzKGBygjB9ZW2-11">
          <mxGeometry relative="1" as="geometry">
            <mxPoint x="240" y="380" as="targetPoint" />
            <Array as="points">
              <mxPoint x="230" y="270" />
            </Array>
          </mxGeometry>
        </mxCell>
        <mxCell id="8_V6e5ZqzKGBygjB9ZW2-9" value="是" style="edgeLabel;html=1;align=center;verticalAlign=middle;resizable=0;points=[];" vertex="1" connectable="0" parent="8_V6e5ZqzKGBygjB9ZW2-5">
          <mxGeometry x="-0.6" y="-3" relative="1" as="geometry">
            <mxPoint as="offset" />
          </mxGeometry>
        </mxCell>
        <mxCell id="8_V6e5ZqzKGBygjB9ZW2-6" style="edgeStyle=orthogonalEdgeStyle;rounded=0;orthogonalLoop=1;jettySize=auto;html=1;exitX=1;exitY=0.5;exitDx=0;exitDy=0;" edge="1" parent="1" source="8_V6e5ZqzKGBygjB9ZW2-1" target="8_V6e5ZqzKGBygjB9ZW2-4">
          <mxGeometry relative="1" as="geometry">
            <Array as="points">
              <mxPoint x="520" y="270" />
            </Array>
          </mxGeometry>
        </mxCell>
        <mxCell id="8_V6e5ZqzKGBygjB9ZW2-10" value="否" style="edgeLabel;html=1;align=center;verticalAlign=middle;resizable=0;points=[];" vertex="1" connectable="0" parent="8_V6e5ZqzKGBygjB9ZW2-6">
          <mxGeometry x="-0.73" y="-2" relative="1" as="geometry">
            <mxPoint as="offset" />
          </mxGeometry>
        </mxCell>
        <mxCell id="8_V6e5ZqzKGBygjB9ZW2-17" value="不管查不查到" style="edgeLabel;html=1;align=center;verticalAlign=middle;resizable=0;points=[];" vertex="1" connectable="0" parent="8_V6e5ZqzKGBygjB9ZW2-6">
          <mxGeometry x="0.22" y="1" relative="1" as="geometry">
            <mxPoint as="offset" />
          </mxGeometry>
        </mxCell>
        <mxCell id="8_V6e5ZqzKGBygjB9ZW2-1" value="&lt;p class=&quot;p1&quot; style=&quot;margin: 0px ; font-stretch: normal ; font-size: 13px ; line-height: normal ; font-family: &amp;#34;pingfang sc&amp;#34;&quot;&gt;精准车型行业代码&lt;/p&gt;&lt;p class=&quot;p1&quot; style=&quot;margin: 0px ; font-stretch: normal ; font-size: 13px ; line-height: normal ; font-family: &amp;#34;pingfang sc&amp;#34;&quot;&gt;与选择车型的车型行业代码是否一致&lt;/p&gt;" style="rhombus;whiteSpace=wrap;html=1;" vertex="1" parent="1">
          <mxGeometry x="310" y="200" width="140" height="140" as="geometry" />
        </mxCell>
        <mxCell id="8_V6e5ZqzKGBygjB9ZW2-4" value="&lt;p class=&quot;p1&quot; style=&quot;margin: 0px ; font-stretch: normal ; font-size: 13px ; line-height: normal ; font-family: &amp;#34;helvetica neue&amp;#34;&quot;&gt;&lt;span class=&quot;Apple-converted-space&quot;&gt;&amp;nbsp;&lt;/span&gt;this.setState({ jzCheckVisible: true, jzHyModelCode: resData&lt;span class=&quot;s1&quot; style=&quot;font-stretch: normal ; line-height: normal ; font-family: &amp;#34;pingfang sc&amp;#34;&quot;&gt;[&lt;/span&gt;0&lt;span class=&quot;s1&quot; style=&quot;font-stretch: normal ; line-height: normal ; font-family: &amp;#34;pingfang sc&amp;#34;&quot;&gt;]&lt;/span&gt;.hyModelCode });&lt;/p&gt;" style="rounded=0;whiteSpace=wrap;html=1;" vertex="1" parent="1">
          <mxGeometry x="420" y="400" width="320" height="60" as="geometry" />
        </mxCell>
        <mxCell id="8_V6e5ZqzKGBygjB9ZW2-13" style="edgeStyle=orthogonalEdgeStyle;rounded=0;orthogonalLoop=1;jettySize=auto;html=1;entryX=0.5;entryY=0;entryDx=0;entryDy=0;" edge="1" parent="1" source="8_V6e5ZqzKGBygjB9ZW2-11" target="8_V6e5ZqzKGBygjB9ZW2-12">
          <mxGeometry relative="1" as="geometry" />
        </mxCell>
        <mxCell id="8_V6e5ZqzKGBygjB9ZW2-21" value="是" style="edgeLabel;html=1;align=center;verticalAlign=middle;resizable=0;points=[];" vertex="1" connectable="0" parent="8_V6e5ZqzKGBygjB9ZW2-13">
          <mxGeometry x="-0.6588" y="-1" relative="1" as="geometry">
            <mxPoint as="offset" />
          </mxGeometry>
        </mxCell>
        <mxCell id="8_V6e5ZqzKGBygjB9ZW2-15" style="edgeStyle=orthogonalEdgeStyle;rounded=0;orthogonalLoop=1;jettySize=auto;html=1;exitX=1;exitY=0.5;exitDx=0;exitDy=0;entryX=0.595;entryY=0.013;entryDx=0;entryDy=0;entryPerimeter=0;" edge="1" parent="1" source="8_V6e5ZqzKGBygjB9ZW2-11" target="8_V6e5ZqzKGBygjB9ZW2-16">
          <mxGeometry relative="1" as="geometry">
            <mxPoint x="330" y="480" as="sourcePoint" />
            <mxPoint x="361" y="580" as="targetPoint" />
          </mxGeometry>
        </mxCell>
        <mxCell id="8_V6e5ZqzKGBygjB9ZW2-23" value="否" style="edgeLabel;html=1;align=center;verticalAlign=middle;resizable=0;points=[];" vertex="1" connectable="0" parent="8_V6e5ZqzKGBygjB9ZW2-15">
          <mxGeometry x="-0.727" y="1" relative="1" as="geometry">
            <mxPoint as="offset" />
          </mxGeometry>
        </mxCell>
        <mxCell id="8_V6e5ZqzKGBygjB9ZW2-11" value="是否查询到相关车型" style="rhombus;whiteSpace=wrap;html=1;" vertex="1" parent="1">
          <mxGeometry x="160" y="390" width="140" height="130" as="geometry" />
        </mxCell>
        <mxCell id="8_V6e5ZqzKGBygjB9ZW2-12" value="&lt;p class=&quot;p1&quot; style=&quot;margin: 0px ; font-stretch: normal ; font-size: 13px ; line-height: normal ; font-family: &amp;#34;helvetica neue&amp;#34;&quot;&gt;&lt;span class=&quot;s1&quot; style=&quot;font-stretch: normal ; line-height: normal ; font-family: &amp;#34;pingfang sc&amp;#34;&quot;&gt;进行&lt;/span&gt; &lt;b&gt;B105&lt;/b&gt;&lt;span class=&quot;s1&quot; style=&quot;font-stretch: normal ; line-height: normal ; font-family: &amp;#34;pingfang sc&amp;#34;&quot;&gt;校验&lt;/span&gt;&lt;/p&gt;" style="whiteSpace=wrap;html=1;aspect=fixed;" vertex="1" parent="1">
          <mxGeometry x="40" y="580" width="90" height="90" as="geometry" />
        </mxCell>
        <mxCell id="8_V6e5ZqzKGBygjB9ZW2-16" value="&lt;p class=&quot;p1&quot; style=&quot;margin: 0px ; font-stretch: normal ; font-size: 13px ; line-height: normal ; font-family: &amp;#34;helvetica neue&amp;#34;&quot;&gt;&lt;span style=&quot;font-family: &amp;#34;pingfang sc&amp;#34;&quot;&gt;存储&lt;/span&gt;&lt;span class=&quot;s1&quot; style=&quot;font-stretch: normal ; line-height: normal&quot;&gt;&amp;nbsp;dataN，&amp;nbsp;&lt;/span&gt;&lt;span style=&quot;font-family: &amp;#34;pingfang sc&amp;#34;&quot;&gt;不含resData&lt;/span&gt;&lt;br&gt;&lt;/p&gt;" style="whiteSpace=wrap;html=1;aspect=fixed;" vertex="1" parent="1">
          <mxGeometry x="310" y="580" width="90" height="90" as="geometry" />
        </mxCell>
        <mxCell id="8_V6e5ZqzKGBygjB9ZW2-19" style="edgeStyle=orthogonalEdgeStyle;rounded=0;orthogonalLoop=1;jettySize=auto;html=1;" edge="1" parent="1" source="8_V6e5ZqzKGBygjB9ZW2-18" target="8_V6e5ZqzKGBygjB9ZW2-1">
          <mxGeometry relative="1" as="geometry" />
        </mxCell>
        <mxCell id="8_V6e5ZqzKGBygjB9ZW2-18" value="&lt;p class=&quot;p1&quot; style=&quot;margin: 0px 0px 2px ; font-stretch: normal ; font-size: 16px ; line-height: normal ; font-family: &amp;#34;pingfang sc&amp;#34;&quot;&gt;若是车型名称查询，调用&lt;span class=&quot;s1&quot; style=&quot;font-stretch: normal ; line-height: normal ; font-family: &amp;#34;helvetica neue&amp;#34;&quot;&gt;B105&lt;/span&gt;校验&lt;/p&gt;" style="ellipse;whiteSpace=wrap;html=1;" vertex="1" parent="1">
          <mxGeometry x="300" y="40" width="160" height="90" as="geometry" />
        </mxCell>
      </root>
    </mxGraphModel>
  </diagram>
</mxfile>
